<?xml version="1.0" encoding="UTF-8" standalone="no"?><!DOCTYPE svg PUBLIC "-//W3C//DTD SVG 1.1//EN" "http://www.w3.org/Graphics/SVG/1.1/DTD/svg11.dtd"><svg width="100%" height="100%" viewBox="0 0 2296 2296" version="1.1" xmlns="http://www.w3.org/2000/svg" xmlns:xlink="http://www.w3.org/1999/xlink" xml:space="preserve" xmlns:serif="http://www.serif.com/" style="fill-rule:evenodd;clip-rule:evenodd;stroke-linejoin:round;stroke-miterlimit:2;"><path d="M1515.005,1996.72c-115.052,24.012 -238.563,37.057 -367.088,37.057c-619.865,0 -1123.117,-303.433 -1123.117,-677.176c0,-156.906 88.698,-301.419 237.486,-416.291l0,233.45c-32.602,57.351 -50.3,118.86 -50.3,182.84c0,311.453 419.377,564.314 935.931,564.314c126.185,0 246.57,-15.089 356.46,-42.435l10.628,118.241Zm261.746,-209.039c-1.766,-2.367 -2.421,-5.383 -1.795,-8.27c0.626,-2.886 2.47,-5.361 5.058,-6.784c186.703,-103.194 303.834,-251.428 303.834,-416.027c0,-54.461 -12.823,-107.131 -36.747,-156.971l0,-248.64c140.605,113.091 223.933,253.53 223.933,405.611c0,211.615 -161.336,400.69 -413.827,524.908c-4.411,2.163 -9.737,0.878 -12.677,-3.058c-13.766,-18.432 -51.925,-69.536 -67.779,-90.769Z" style="fill:#fff;"/><path d="M1530.802,1799.831c-7.958,-3.979 -17.449,-3.319 -24.78,1.722c-7.331,5.041 -11.343,13.668 -10.475,22.523c5.936,60.543 16.566,168.974 22.601,230.534c0.884,9.014 6.68,16.8 15.061,20.233c8.381,3.433 17.974,1.949 24.927,-3.856c45.229,-37.76 122.547,-102.31 164.237,-137.115c6.329,-5.284 9.567,-13.402 8.613,-21.59c-0.954,-8.189 -5.972,-15.345 -13.346,-19.032c-47.854,-23.927 -135.781,-67.891 -186.838,-93.419Z" style="fill:#fff;"/><path d="M318.729,679.425l809.195,391.012l-0.998,809.642l-726.968,-343.664c-49.596,-23.446 -81.228,-73.387 -81.228,-128.247l0,-728.743Zm363.309,748.553l-193.375,-93.825c-19.822,-9.617 -43.687,-1.345 -53.304,18.476l-0.006,0.012c-9.617,19.822 -1.345,43.687 18.476,53.304l193.375,93.825c19.822,9.617 43.687,1.345 53.304,-18.476l0.006,-0.012c9.617,-19.822 1.345,-43.687 -18.476,-53.304Z" style="fill:#fff;"/><path d="M354.327,619.712c-5.03,-2.357 -8.24,-7.412 -8.235,-12.967c0.006,-5.555 3.227,-10.604 8.261,-12.95c84.506,-39.387 333,-155.207 333,-155.207c0,0 700.286,322.893 825.185,380.482c3.392,1.564 5.56,4.962 5.549,8.696c-0.01,3.735 -2.198,7.12 -5.598,8.665c-69.5,31.578 -308.02,139.953 -347.592,157.933c-3.543,1.61 -7.614,1.586 -11.137,-0.065c-64.031,-30.003 -662.701,-310.519 -799.433,-374.587Z" style="fill:#fff;"/><path d="M817.25,399.759c-5.03,-2.357 -8.24,-7.412 -8.235,-12.967c0.006,-5.555 3.227,-10.604 8.261,-12.95c84.506,-39.387 333,-155.207 333,-155.207c-0,0 701.111,314.92 825.405,370.749c3.387,1.522 5.585,4.869 5.634,8.583c0.049,3.713 -2.059,7.118 -5.405,8.729c-68.792,33.115 -308.004,148.269 -347.985,167.515c-3.599,1.733 -7.787,1.755 -11.404,0.06c-64.875,-30.398 -662.653,-310.497 -799.271,-374.511Z" style="fill:#fff;"/><path d="M1191.434,1063.103l306.419,-150.591l-1.309,235.404l145.353,-66.481l0,-223.922l350.941,-178.09l2.619,784.38l-803.761,408.035l-0.262,-808.737Z" style="fill:#fff;"/></svg>